<?xml version="1.0" encoding="UTF-8"?>
<svg width="2166px" height="400px" viewBox="0 0 2166 400" version="1.1" xmlns="http://www.w3.org/2000/svg" xmlns:xlink="http://www.w3.org/1999/xlink">
    <!-- Generator: Sketch 43.2 (39069) - http://www.bohemiancoding.com/sketch -->
    <title>logo_typography</title>
    <desc>Created with Sketch.</desc>
    <defs>
        <path d="M0,100.76472 C0,89.7205555 7.76601021,76.3247909 17.361886,70.8352801 L133.98913,4.11635532 C143.577835,-1.3690532 159.117027,-1.37315548 168.712903,4.11635532 L285.340147,70.8352801 C294.928852,76.3206886 302.702033,89.7240391 302.702033,100.76472 L302.702033,236.211937 C302.702033,247.256102 295.071058,260.892778 285.653695,266.672807 L170.020504,337.644189 C160.604966,343.423098 145.294557,343.495474 135.832656,337.811198 L17.1395095,266.505798 C7.6736198,260.819126 0,247.252619 0,236.211937 L0,100.76472 Z" id="path-1"></path>
    </defs>
    <g id="[PRODUCTION]" stroke="none" stroke-width="1" fill="none" fill-rule="evenodd">
        <g id="logo_typography">
            <path d="M412,303.12 L412,289.234 L423.004,289.234 C426.846686,289.234 430.034321,288.273343 432.567,286.352 C435.099679,284.430657 436.366,279.714704 436.366,272.204 L436.366,146.968 C436.366,139.457296 435.099679,134.741343 432.567,132.82 C430.034321,130.898657 426.846686,129.938 423.004,129.938 L412,129.938 L412,116.052 L502.39,116.052 L502.39,129.938 L491.386,129.938 C487.543314,129.938 484.355679,130.898657 481.823,132.82 C479.290321,134.741343 478.024,139.457296 478.024,146.968 L478.024,272.204 C478.024,279.714704 479.290321,284.430657 481.823,286.352 C484.355679,288.273343 487.543314,289.234 491.386,289.234 L502.39,289.234 L502.39,303.12 L412,303.12 Z M509.916546,303.12 L509.916546,289.234 L510.440546,289.234 C516.379243,289.234 521.26986,288.18601 525.112546,286.09 C528.955232,283.99399 530.876546,279.016039 530.876546,271.156 L530.876546,193.604 C530.876546,186.267963 529.173563,181.595677 525.767546,179.587 C522.361529,177.578323 517.776575,176.574 512.012546,176.574 L511.226546,176.574 L511.226546,162.688 L566.246546,162.688 L569.652546,181.29 L570.962546,181.29 C574.455897,174.827301 578.254859,170.024016 582.359546,166.88 C586.464233,163.735984 590.874523,161.683671 595.590546,160.723 C600.30657,159.762329 605.459185,159.282 611.048546,159.282 C624.497947,159.282 635.065175,163.299293 642.750546,171.334 C650.435918,179.368707 654.278546,192.206578 654.278546,209.848 L654.278546,270.632 C654.278546,278.666707 655.719532,283.775656 658.601546,285.959 C661.483561,288.142344 665.89385,289.234 671.832546,289.234 L672.618546,289.234 L672.618546,303.12 L614.454546,303.12 L614.454546,216.922 C614.454546,205.56861 612.882562,196.835364 609.738546,190.722 C606.594531,184.608636 601.179918,181.552 593.494546,181.552 C587.730517,181.552 583.18923,183.429648 579.870546,187.185 C576.551863,190.940352 574.193887,195.918302 572.796546,202.119 C571.399206,208.319698 570.700546,215.000631 570.700546,222.162 L570.700546,272.204 C570.700546,279.540037 572.403529,284.212323 575.809546,286.221 C579.215563,288.229677 583.800517,289.234 589.564546,289.234 L590.350546,289.234 L590.350546,303.12 L509.916546,303.12 Z M731.903093,305.74 C712.864331,305.74 699.327799,302.814363 691.293093,296.963 C683.258386,291.111637 679.241093,283.819377 679.241093,275.086 C679.241093,269.321971 680.638412,265.042681 683.433093,262.248 C686.227773,259.453319 689.546407,257.575671 693.389093,256.615 C697.231778,255.654329 700.637744,255.174 703.607093,255.174 C703.607093,266.003387 706.1834,274.561969 711.336093,280.85 C716.488785,287.138031 723.344383,290.282 731.903093,290.282 C740.985805,290.282 747.579405,288.535351 751.684093,285.042 C755.78878,281.548649 757.841093,277.356691 757.841093,272.466 C757.841093,266.701971 755.570449,261.986018 751.029093,258.318 C746.487736,254.649982 738.016488,250.632688 725.615093,246.266 C711.467022,241.375309 700.637797,235.5677 693.127093,228.843 C685.616388,222.1183 681.861093,212.904725 681.861093,201.202 C681.861093,187.228597 687.013708,176.792368 697.319093,169.893 C707.624477,162.993632 721.248341,159.544 738.191093,159.544 C749.195148,159.544 758.059392,160.722988 764.784093,163.081 C771.508793,165.439012 776.399411,168.495648 779.456093,172.251 C782.512774,176.006352 784.041093,179.892647 784.041093,183.91 C784.041093,189.848696 781.98878,194.346318 777.884093,197.403 C773.779405,200.459682 766.923807,201.988 757.317093,201.988 C757.317093,193.254623 755.395778,186.486357 751.553093,181.683 C747.710407,176.879643 741.946464,174.478 734.261093,174.478 C728.671731,174.478 723.737447,175.831653 719.458093,178.539 C715.178738,181.246347 713.039093,185.307306 713.039093,190.722 C713.039093,194.390018 714.043416,197.621319 716.052093,200.416 C718.060769,203.210681 721.685066,205.917987 726.925093,208.538 C732.165119,211.158013 739.501045,214.127317 748.933093,217.446 C760.635818,221.463353 770.198722,226.746967 777.622093,233.297 C785.045463,239.847033 788.757093,248.623945 788.757093,259.628 C788.757093,274.125406 783.779142,285.434959 773.823093,293.557 C763.867043,301.679041 749.893849,305.74 731.903093,305.74 Z M854.853639,305.74 C843.150914,305.74 833.80634,302.683364 826.819639,296.57 C819.832937,290.456636 816.339639,279.714744 816.339639,264.344 L816.339639,180.504 L796.689639,180.504 L796.689639,167.142 C802.279,167.142 807.300617,166.050344 811.754639,163.867 C816.208661,161.683656 819.745626,159.107348 822.365639,156.138 C827.780333,150.373971 831.797626,141.728058 834.417639,130.2 L856.163639,130.2 L856.163639,162.688 L889.699639,162.688 L889.699639,180.504 L856.163639,180.504 L856.163639,261.724 C856.163639,269.584039 857.517292,275.347982 860.224639,279.016 C862.931986,282.684018 867.342275,284.518 873.455639,284.518 C876.94899,284.518 880.223957,284.299669 883.280639,283.863 C886.337321,283.426331 889.262958,282.85867 892.057639,282.16 L892.057639,299.19 C889.262958,300.412673 884.678004,301.809992 878.302639,303.382 C871.927274,304.954008 864.111018,305.74 854.853639,305.74 Z M942.172185,305.74 C930.644127,305.74 920.906558,302.246702 912.959185,295.26 C905.011812,288.273298 901.038185,277.531406 901.038185,263.034 C901.038185,248.885929 905.885137,238.406034 915.579185,231.594 C925.273234,224.781966 939.988753,221.02667 959.726185,220.328 L981.210185,219.542 L981.210185,205.132 C981.210185,196.398623 980.293194,189.237361 978.459185,183.648 C976.625176,178.058639 972.127554,175.264 964.966185,175.264 C958.328819,175.264 953.743864,177.971306 951.211185,183.386 C948.678506,188.800694 947.412185,195.525293 947.412185,203.56 C935.70946,203.56 926.888881,202.250013 920.950185,199.63 C915.011489,197.009987 912.042185,192.468699 912.042185,186.006 C912.042185,179.543301 914.487494,174.390686 919.378185,170.548 C924.268876,166.705314 930.775144,163.867009 938.897185,162.033 C947.019226,160.198991 956.058135,159.282 966.014185,159.282 C984.354277,159.282 998.109139,162.600633 1007.27919,169.238 C1016.44923,175.875367 1021.03419,187.403251 1021.03419,203.822 L1021.03419,270.632 C1021.03419,277.793369 1022.16951,282.683987 1024.44019,285.304 C1026.71086,287.924013 1030.81549,289.234 1036.75419,289.234 L1037.80219,289.234 L1037.80219,303.12 L989.070185,303.12 L983.568185,285.042 L981.210185,285.042 C977.367499,289.758024 973.743202,293.644318 970.337185,296.701 C966.931168,299.757682 963.044874,302.028326 958.678185,303.513 C954.311497,304.997674 948.809552,305.74 942.172185,305.74 Z M956.582185,286.614 C964.092889,286.614 970.075163,283.60103 974.529185,277.575 C978.983207,271.54897 981.210185,263.383385 981.210185,253.078 L981.210185,233.428 L969.420185,234.214 C958.940133,234.738003 951.691538,237.488975 947.674185,242.467 C943.656832,247.445025 941.648185,254.649953 941.648185,264.082 C941.648185,279.103408 946.626135,286.614 956.582185,286.614 Z M1046.37673,303.12 L1046.37673,289.234 L1046.90073,289.234 C1052.83943,289.234 1057.73005,288.18601 1061.57273,286.09 C1065.41542,283.99399 1067.33673,279.016039 1067.33673,271.156 L1067.33673,193.604 C1067.33673,186.267963 1065.63375,181.595677 1062.22773,179.587 C1058.82171,177.578323 1054.23676,176.574 1048.47273,176.574 L1047.68673,176.574 L1047.68673,162.688 L1102.70673,162.688 L1106.11273,181.29 L1107.42273,181.29 C1110.91608,174.827301 1114.71504,170.024016 1118.81973,166.88 C1122.92442,163.735984 1127.33471,161.683671 1132.05073,160.723 C1136.76675,159.762329 1141.91937,159.282 1147.50873,159.282 C1160.95813,159.282 1171.52536,163.299293 1179.21073,171.334 C1186.8961,179.368707 1190.73873,192.206578 1190.73873,209.848 L1190.73873,270.632 C1190.73873,278.666707 1192.17972,283.775656 1195.06173,285.959 C1197.94375,288.142344 1202.35403,289.234 1208.29273,289.234 L1209.07873,289.234 L1209.07873,303.12 L1150.91473,303.12 L1150.91473,216.922 C1150.91473,205.56861 1149.34275,196.835364 1146.19873,190.722 C1143.05472,184.608636 1137.6401,181.552 1129.95473,181.552 C1124.1907,181.552 1119.64941,183.429648 1116.33073,187.185 C1113.01205,190.940352 1110.65407,195.918302 1109.25673,202.119 C1107.85939,208.319698 1107.16073,215.000631 1107.16073,222.162 L1107.16073,272.204 C1107.16073,279.540037 1108.86371,284.212323 1112.26973,286.221 C1115.67575,288.229677 1120.2607,289.234 1126.02473,289.234 L1126.81073,289.234 L1126.81073,303.12 L1046.37673,303.12 Z M1271.50728,305.74 C1259.80455,305.74 1250.45998,302.683364 1243.47328,296.57 C1236.48658,290.456636 1232.99328,279.714744 1232.99328,264.344 L1232.99328,180.504 L1213.34328,180.504 L1213.34328,167.142 C1218.93264,167.142 1223.95426,166.050344 1228.40828,163.867 C1232.8623,161.683656 1236.39926,159.107348 1239.01928,156.138 C1244.43397,150.373971 1248.45126,141.728058 1251.07128,130.2 L1272.81728,130.2 L1272.81728,162.688 L1306.35328,162.688 L1306.35328,180.504 L1272.81728,180.504 L1272.81728,261.724 C1272.81728,269.584039 1274.17093,275.347982 1276.87828,279.016 C1279.58562,282.684018 1283.99591,284.518 1290.10928,284.518 C1293.60263,284.518 1296.8776,284.299669 1299.93428,283.863 C1302.99096,283.426331 1305.9166,282.85867 1308.71128,282.16 L1308.71128,299.19 C1305.9166,300.412673 1301.33164,301.809992 1294.95628,303.382 C1288.58091,304.954008 1280.76466,305.74 1271.50728,305.74 Z M1412.91582,305.74 C1402.78511,305.74 1394.53219,303.600355 1388.15682,299.321 C1381.78146,295.041645 1376.67251,289.496034 1372.82982,282.684 L1370.47182,282.684 L1363.13582,303.12 L1313.35582,303.12 L1313.35582,289.234 L1315.18982,289.234 C1318.50851,289.234 1321.69614,288.797338 1324.75282,287.924 C1327.80951,287.050662 1330.29848,285.347679 1332.21982,282.815 C1334.14117,280.282321 1335.10182,276.308694 1335.10182,270.894 L1335.10182,135.44 C1335.10182,127.929296 1333.04951,123.12601 1328.94482,121.03 C1324.84014,118.93399 1319.99319,117.886 1314.40382,117.886 L1313.35582,117.886 L1313.35582,104 L1374.92582,104 L1374.92582,148.802 C1374.92582,151.422013 1374.83849,154.740647 1374.66382,158.758 C1374.48916,162.775353 1374.22716,166.74898 1373.87782,170.679 C1373.52849,174.60902 1373.17916,177.883987 1372.82982,180.504 L1374.66382,180.504 C1378.50651,174.041301 1383.52813,168.932352 1389.72882,165.177 C1395.92952,161.421648 1404.00777,159.544 1413.96382,159.544 C1430.90658,159.544 1443.91911,165.351609 1453.00182,176.967 C1462.08454,188.582391 1466.62582,207.053207 1466.62582,232.38 C1466.62582,257.881461 1462.04087,276.483275 1452.87082,288.186 C1443.70078,299.888725 1430.38258,305.74 1412.91582,305.74 Z M1401.91182,286.09 C1410.47053,286.09 1416.67114,281.46138 1420.51382,272.204 C1424.35651,262.94662 1426.27782,249.584754 1426.27782,232.118 C1426.27782,214.301911 1424.35651,200.983711 1420.51382,192.163 C1416.67114,183.342289 1410.3832,178.932 1401.64982,178.932 C1391.34444,178.932 1384.31418,183.298623 1380.55882,192.032 C1376.80347,200.765377 1374.92582,214.214576 1374.92582,232.38 C1374.92582,249.672086 1376.80347,262.94662 1380.55882,272.204 C1384.31418,281.46138 1391.43177,286.09 1401.91182,286.09 Z M1550.80037,305.74 C1529.84027,305.74 1513.33443,299.670394 1501.28237,287.531 C1489.23031,275.391606 1483.20437,257.008123 1483.20437,232.38 C1483.20437,207.751877 1488.96831,189.41206 1500.49637,177.36 C1512.02443,165.30794 1529.05426,159.282 1551.58637,159.282 C1572.54647,159.282 1589.05231,165.30794 1601.10437,177.36 C1613.15643,189.41206 1619.18237,207.751877 1619.18237,232.38 C1619.18237,257.008123 1613.37476,275.391606 1601.75937,287.531 C1590.14398,299.670394 1573.15782,305.74 1550.80037,305.74 Z M1551.32437,289.234 C1561.45509,289.234 1568.52902,284.387048 1572.54637,274.693 C1576.56372,264.998952 1578.57237,250.894759 1578.57237,232.38 C1578.57237,213.690573 1576.52006,199.630047 1572.41537,190.198 C1568.31068,180.765953 1561.19309,176.05 1551.06237,176.05 C1540.93165,176.05 1533.85772,180.765953 1529.84037,190.198 C1525.82302,199.630047 1523.81437,213.690573 1523.81437,232.38 C1523.81437,250.894759 1525.86668,264.998952 1529.97137,274.693 C1534.07606,284.387048 1541.19365,289.234 1551.32437,289.234 Z M1676.37092,305.74 C1664.84286,305.74 1655.10529,302.246702 1647.15792,295.26 C1639.21054,288.273298 1635.23692,277.531406 1635.23692,263.034 C1635.23692,248.885929 1640.08387,238.406034 1649.77792,231.594 C1659.47196,224.781966 1674.18748,221.02667 1693.92492,220.328 L1715.40892,219.542 L1715.40892,205.132 C1715.40892,196.398623 1714.49193,189.237361 1712.65792,183.648 C1710.82391,178.058639 1706.32629,175.264 1699.16492,175.264 C1692.52755,175.264 1687.9426,177.971306 1685.40992,183.386 C1682.87724,188.800694 1681.61092,195.525293 1681.61092,203.56 C1669.90819,203.56 1661.08761,202.250013 1655.14892,199.63 C1649.21022,197.009987 1646.24092,192.468699 1646.24092,186.006 C1646.24092,179.543301 1648.68623,174.390686 1653.57692,170.548 C1658.46761,166.705314 1664.97388,163.867009 1673.09592,162.033 C1681.21796,160.198991 1690.25687,159.282 1700.21292,159.282 C1718.55301,159.282 1732.30787,162.600633 1741.47792,169.238 C1750.64796,175.875367 1755.23292,187.403251 1755.23292,203.822 L1755.23292,270.632 C1755.23292,277.793369 1756.36824,282.683987 1758.63892,285.304 C1760.90959,287.924013 1765.01422,289.234 1770.95292,289.234 L1772.00092,289.234 L1772.00092,303.12 L1723.26892,303.12 L1717.76692,285.042 L1715.40892,285.042 C1711.56623,289.758024 1707.94193,293.644318 1704.53592,296.701 C1701.1299,299.757682 1697.2436,302.028326 1692.87692,303.513 C1688.51023,304.997674 1683.00828,305.74 1676.37092,305.74 Z M1690.78092,286.614 C1698.29162,286.614 1704.27389,283.60103 1708.72792,277.575 C1713.18194,271.54897 1715.40892,263.383385 1715.40892,253.078 L1715.40892,233.428 L1703.61892,234.214 C1693.13886,234.738003 1685.89027,237.488975 1681.87292,242.467 C1677.85556,247.445025 1675.84692,254.649953 1675.84692,264.082 C1675.84692,279.103408 1680.82487,286.614 1690.78092,286.614 Z M1780.57546,303.12 L1780.57546,289.234 L1781.36146,289.234 C1787.30016,289.234 1792.14711,288.142344 1795.90246,285.959 C1799.65781,283.775656 1801.53546,278.579374 1801.53546,270.37 L1801.53546,194.39 C1801.53546,186.704628 1799.83248,181.81401 1796.42646,179.718 C1793.02045,177.62199 1788.43549,176.574 1782.67146,176.574 L1781.88546,176.574 L1781.88546,162.688 L1834.80946,162.688 L1840.04946,183.124 L1841.35946,183.124 C1844.85281,175.263961 1849.21944,169.36902 1854.45946,165.439 C1859.69949,161.50898 1867.64674,159.544 1878.30146,159.544 C1898.38823,159.544 1908.43146,166.617929 1908.43146,180.766 C1908.43146,188.800707 1905.50583,195.044978 1899.65446,199.499 C1893.8031,203.953022 1885.63752,206.18 1875.15746,206.18 C1875.15746,199.018631 1874.24047,193.604018 1872.40646,189.936 C1870.57245,186.267982 1867.21015,184.434 1862.31946,184.434 C1857.77811,184.434 1854.11014,186.005984 1851.31546,189.15 C1848.52078,192.294016 1846.4248,196.18031 1845.02746,200.809 C1843.63012,205.43769 1842.66947,210.109976 1842.14546,214.826 C1841.62146,219.542024 1841.35946,223.384652 1841.35946,226.354 L1841.35946,271.68 C1841.35946,279.365372 1843.10611,284.212323 1846.59946,286.221 C1850.09281,288.229677 1854.45944,289.234 1859.69946,289.234 L1868.08346,289.234 L1868.08346,303.12 L1780.57546,303.12 Z M1969.81201,305.74 C1952.69459,305.74 1939.50739,299.932391 1930.25001,288.317 C1920.99263,276.701609 1916.36401,258.318126 1916.36401,233.166 C1916.36401,207.839207 1920.94896,189.237393 1930.11901,177.36 C1939.28905,165.482607 1952.34526,159.544 1969.28801,159.544 C1979.06939,159.544 1987.10398,161.552647 1993.39201,165.57 C1999.68004,169.587353 2004.65799,174.565304 2008.32601,180.504 L2010.16001,180.504 C2009.46134,175.613309 2008.93734,170.111364 2008.58801,163.998 C2008.23867,157.884636 2008.06401,152.732021 2008.06401,148.54 L2008.06401,134.13 C2008.06401,126.968631 2005.96803,122.471009 2001.77601,120.637 C1997.58399,118.802991 1992.60604,117.886 1986.84201,117.886 L1984.74601,117.886 L1984.74601,104 L2047.88801,104 L2047.88801,270.894 C2047.88801,276.308694 2048.89233,280.282321 2050.90101,282.815 C2052.90969,285.347679 2055.57333,287.050662 2058.89201,287.924 C2062.21069,288.797338 2065.79132,289.234 2069.63401,289.234 L2070.68201,289.234 L2070.68201,303.12 L2019.85401,303.12 L2012.51801,282.684 L2010.16001,282.684 C2006.31732,289.670702 2001.16471,295.259979 1994.70201,299.452 C1988.23931,303.644021 1979.94273,305.74 1969.81201,305.74 Z M1981.07801,286.09 C1991.38339,286.09 1998.45732,281.679711 2002.30001,272.859 C2006.14269,264.038289 2008.06401,250.632757 2008.06401,232.642 C2008.06401,215.349914 2006.14269,202.07538 2002.30001,192.818 C1998.45732,183.56062 1991.38339,178.932 1981.07801,178.932 C1972.34463,178.932 1966.10036,183.56062 1962.34501,192.818 C1958.58966,202.07538 1956.71201,215.437246 1956.71201,232.904 C1956.71201,250.720089 1958.58966,264.038289 1962.34501,272.859 C1966.10036,281.679711 1972.34463,286.09 1981.07801,286.09 Z" id="Instantboard" fill="#9E9E9E"></path>
            <g id="logo" transform="translate(60.000000, 29.000000)">
                <g id="Group-2">
                    <mask id="mask-2" fill="white">
                        <use xlink:href="#path-1"></use>
                    </mask>
                    <path stroke="#9E9E9E" stroke-width="20" d="M10,100.76472 C10,93.3044966 15.8475015,83.2223075 22.3274707,79.5153129 L138.954715,12.7963881 C145.469696,9.0693645 157.23066,9.06840461 163.747318,12.7963881 L280.374562,79.5153129 C286.848951,83.2191152 292.702033,93.3098131 292.702033,100.76472 L292.702033,236.211937 C292.702033,243.7798 286.876504,254.188984 280.422748,258.150061 L164.789557,329.121443 C158.555152,332.94789 147.246921,333.002579 140.982366,329.239122 L22.2892197,257.933722 C15.8339516,254.055693 10,243.74344 10,236.211937 L10,100.76472 Z"></path>
                    <path d="M-2.22044605e-16,168.488329 L79.9758175,207.943853 C80.966356,208.432528 82.5475309,208.377612 83.4995498,207.825784 L302.702033,80.7674908" id="Line" stroke="#9E9E9E" stroke-width="20" stroke-linecap="square" mask="url(#mask-2)"></path>
                </g>
            </g>
        </g>
    </g>
</svg>