<?xml version="1.0" encoding="UTF-8"?>
<svg width="400px" height="400px" viewBox="0 0 400 400" version="1.1" xmlns="http://www.w3.org/2000/svg" xmlns:xlink="http://www.w3.org/1999/xlink">
    <!-- Generator: Sketch 43.2 (39069) - http://www.bohemiancoding.com/sketch -->
    <title>logo</title>
    <desc>Created with Sketch.</desc>
    <defs>
        <path d="M0,100.76472 C0,89.7205555 7.76601021,76.3247909 17.361886,70.8352801 L133.98913,4.11635532 C143.577835,-1.3690532 159.117027,-1.37315548 168.712903,4.11635532 L285.340147,70.8352801 C294.928852,76.3206886 302.702033,89.7240391 302.702033,100.76472 L302.702033,236.211937 C302.702033,247.256102 295.071058,260.892778 285.653695,266.672807 L170.020504,337.644189 C160.604966,343.423098 145.294557,343.495474 135.832656,337.811198 L17.1395095,266.505798 C7.6736198,260.819126 0,247.252619 0,236.211937 L0,100.76472 Z" id="path-1"></path>
    </defs>
    <g id="[PRODUCTION]" stroke="none" stroke-width="1" fill="none" fill-rule="evenodd">
        <g id="logo">
            <g transform="translate(60.000000, 29.000000)" id="Group-2">
                <g>
                    <mask id="mask-2" fill="white">
                        <use xlink:href="#path-1"></use>
                    </mask>
                    <path stroke="#9E9E9E" stroke-width="20" d="M10,100.76472 C10,93.3044966 15.8475015,83.2223075 22.3274707,79.5153129 L138.954715,12.7963881 C145.469696,9.0693645 157.23066,9.06840461 163.747318,12.7963881 L280.374562,79.5153129 C286.848951,83.2191152 292.702033,93.3098131 292.702033,100.76472 L292.702033,236.211937 C292.702033,243.7798 286.876504,254.188984 280.422748,258.150061 L164.789557,329.121443 C158.555152,332.94789 147.246921,333.002579 140.982366,329.239122 L22.2892197,257.933722 C15.8339516,254.055693 10,243.74344 10,236.211937 L10,100.76472 Z"></path>
                    <path d="M-2.22044605e-16,168.488329 L79.9758175,207.943853 C80.966356,208.432528 82.5475309,208.377612 83.4995498,207.825784 L302.702033,80.7674908" id="Line" stroke="#9E9E9E" stroke-width="20" stroke-linecap="square" mask="url(#mask-2)"></path>
                </g>
            </g>
        </g>
    </g>
</svg>