<?xml version="1.0" encoding="UTF-8"?>
<svg width="1775px" height="400px" viewBox="0 0 1775 400" version="1.1" xmlns="http://www.w3.org/2000/svg" xmlns:xlink="http://www.w3.org/1999/xlink">
    <!-- Generator: Sketch 43.2 (39069) - http://www.bohemiancoding.com/sketch -->
    <title>typography</title>
    <desc>Created with Sketch.</desc>
    <defs></defs>
    <g id="Branding" stroke="none" stroke-width="1" fill="none" fill-rule="evenodd">
        <path d="M58,302.12 L58,288.234 L69.004,288.234 C72.8466859,288.234 76.0343207,287.273343 78.567,285.352 C81.0996793,283.430657 82.366,278.714704 82.366,271.204 L82.366,145.968 C82.366,138.457296 81.0996793,133.741343 78.567,131.82 C76.0343207,129.898657 72.8466859,128.938 69.004,128.938 L58,128.938 L58,115.052 L148.39,115.052 L148.39,128.938 L137.386,128.938 C133.543314,128.938 130.355679,129.898657 127.823,131.82 C125.290321,133.741343 124.024,138.457296 124.024,145.968 L124.024,271.204 C124.024,278.714704 125.290321,283.430657 127.823,285.352 C130.355679,287.273343 133.543314,288.234 137.386,288.234 L148.39,288.234 L148.39,302.12 L58,302.12 Z M155.916546,302.12 L155.916546,288.234 L156.440546,288.234 C162.379243,288.234 167.26986,287.18601 171.112546,285.09 C174.955232,282.99399 176.876546,278.016039 176.876546,270.156 L176.876546,192.604 C176.876546,185.267963 175.173563,180.595677 171.767546,178.587 C168.361529,176.578323 163.776575,175.574 158.012546,175.574 L157.226546,175.574 L157.226546,161.688 L212.246546,161.688 L215.652546,180.29 L216.962546,180.29 C220.455897,173.827301 224.254859,169.024016 228.359546,165.88 C232.464233,162.735984 236.874523,160.683671 241.590546,159.723 C246.30657,158.762329 251.459185,158.282 257.048546,158.282 C270.497947,158.282 281.065175,162.299293 288.750546,170.334 C296.435918,178.368707 300.278546,191.206578 300.278546,208.848 L300.278546,269.632 C300.278546,277.666707 301.719532,282.775656 304.601546,284.959 C307.483561,287.142344 311.89385,288.234 317.832546,288.234 L318.618546,288.234 L318.618546,302.12 L260.454546,302.12 L260.454546,215.922 C260.454546,204.56861 258.882562,195.835364 255.738546,189.722 C252.594531,183.608636 247.179918,180.552 239.494546,180.552 C233.730517,180.552 229.18923,182.429648 225.870546,186.185 C222.551863,189.940352 220.193887,194.918302 218.796546,201.119 C217.399206,207.319698 216.700546,214.000631 216.700546,221.162 L216.700546,271.204 C216.700546,278.540037 218.403529,283.212323 221.809546,285.221 C225.215563,287.229677 229.800517,288.234 235.564546,288.234 L236.350546,288.234 L236.350546,302.12 L155.916546,302.12 Z M377.903093,304.74 C358.864331,304.74 345.327799,301.814363 337.293093,295.963 C329.258386,290.111637 325.241093,282.819377 325.241093,274.086 C325.241093,268.321971 326.638412,264.042681 329.433093,261.248 C332.227773,258.453319 335.546407,256.575671 339.389093,255.615 C343.231778,254.654329 346.637744,254.174 349.607093,254.174 C349.607093,265.003387 352.1834,273.561969 357.336093,279.85 C362.488785,286.138031 369.344383,289.282 377.903093,289.282 C386.985805,289.282 393.579405,287.535351 397.684093,284.042 C401.78878,280.548649 403.841093,276.356691 403.841093,271.466 C403.841093,265.701971 401.570449,260.986018 397.029093,257.318 C392.487736,253.649982 384.016488,249.632688 371.615093,245.266 C357.467022,240.375309 346.637797,234.5677 339.127093,227.843 C331.616388,221.1183 327.861093,211.904725 327.861093,200.202 C327.861093,186.228597 333.013708,175.792368 343.319093,168.893 C353.624477,161.993632 367.248341,158.544 384.191093,158.544 C395.195148,158.544 404.059392,159.722988 410.784093,162.081 C417.508793,164.439012 422.399411,167.495648 425.456093,171.251 C428.512774,175.006352 430.041093,178.892647 430.041093,182.91 C430.041093,188.848696 427.98878,193.346318 423.884093,196.403 C419.779405,199.459682 412.923807,200.988 403.317093,200.988 C403.317093,192.254623 401.395778,185.486357 397.553093,180.683 C393.710407,175.879643 387.946464,173.478 380.261093,173.478 C374.671731,173.478 369.737447,174.831653 365.458093,177.539 C361.178738,180.246347 359.039093,184.307306 359.039093,189.722 C359.039093,193.390018 360.043416,196.621319 362.052093,199.416 C364.060769,202.210681 367.685066,204.917987 372.925093,207.538 C378.165119,210.158013 385.501045,213.127317 394.933093,216.446 C406.635818,220.463353 416.198722,225.746967 423.622093,232.297 C431.045463,238.847033 434.757093,247.623945 434.757093,258.628 C434.757093,273.125406 429.779142,284.434959 419.823093,292.557 C409.867043,300.679041 395.893849,304.74 377.903093,304.74 Z M500.853639,304.74 C489.150914,304.74 479.80634,301.683364 472.819639,295.57 C465.832937,289.456636 462.339639,278.714744 462.339639,263.344 L462.339639,179.504 L442.689639,179.504 L442.689639,166.142 C448.279,166.142 453.300617,165.050344 457.754639,162.867 C462.208661,160.683656 465.745626,158.107348 468.365639,155.138 C473.780333,149.373971 477.797626,140.728058 480.417639,129.2 L502.163639,129.2 L502.163639,161.688 L535.699639,161.688 L535.699639,179.504 L502.163639,179.504 L502.163639,260.724 C502.163639,268.584039 503.517292,274.347982 506.224639,278.016 C508.931986,281.684018 513.342275,283.518 519.455639,283.518 C522.94899,283.518 526.223957,283.299669 529.280639,282.863 C532.337321,282.426331 535.262958,281.85867 538.057639,281.16 L538.057639,298.19 C535.262958,299.412673 530.678004,300.809992 524.302639,302.382 C517.927274,303.954008 510.111018,304.74 500.853639,304.74 Z M588.172185,304.74 C576.644127,304.74 566.906558,301.246702 558.959185,294.26 C551.011812,287.273298 547.038185,276.531406 547.038185,262.034 C547.038185,247.885929 551.885137,237.406034 561.579185,230.594 C571.273234,223.781966 585.988753,220.02667 605.726185,219.328 L627.210185,218.542 L627.210185,204.132 C627.210185,195.398623 626.293194,188.237361 624.459185,182.648 C622.625176,177.058639 618.127554,174.264 610.966185,174.264 C604.328819,174.264 599.743864,176.971306 597.211185,182.386 C594.678506,187.800694 593.412185,194.525293 593.412185,202.56 C581.70946,202.56 572.888881,201.250013 566.950185,198.63 C561.011489,196.009987 558.042185,191.468699 558.042185,185.006 C558.042185,178.543301 560.487494,173.390686 565.378185,169.548 C570.268876,165.705314 576.775144,162.867009 584.897185,161.033 C593.019226,159.198991 602.058135,158.282 612.014185,158.282 C630.354277,158.282 644.109139,161.600633 653.279185,168.238 C662.449231,174.875367 667.034185,186.403251 667.034185,202.822 L667.034185,269.632 C667.034185,276.793369 668.169507,281.683987 670.440185,284.304 C672.710863,286.924013 676.815489,288.234 682.754185,288.234 L683.802185,288.234 L683.802185,302.12 L635.070185,302.12 L629.568185,284.042 L627.210185,284.042 C623.367499,288.758024 619.743202,292.644318 616.337185,295.701 C612.931168,298.757682 609.044874,301.028326 604.678185,302.513 C600.311497,303.997674 594.809552,304.74 588.172185,304.74 Z M602.582185,285.614 C610.092889,285.614 616.075163,282.60103 620.529185,276.575 C624.983207,270.54897 627.210185,262.383385 627.210185,252.078 L627.210185,232.428 L615.420185,233.214 C604.940133,233.738003 597.691538,236.488975 593.674185,241.467 C589.656832,246.445025 587.648185,253.649953 587.648185,263.082 C587.648185,278.103408 592.626135,285.614 602.582185,285.614 Z M692.376731,302.12 L692.376731,288.234 L692.900731,288.234 C698.839428,288.234 703.730045,287.18601 707.572731,285.09 C711.415417,282.99399 713.336731,278.016039 713.336731,270.156 L713.336731,192.604 C713.336731,185.267963 711.633748,180.595677 708.227731,178.587 C704.821714,176.578323 700.23676,175.574 694.472731,175.574 L693.686731,175.574 L693.686731,161.688 L748.706731,161.688 L752.112731,180.29 L753.422731,180.29 C756.916082,173.827301 760.715044,169.024016 764.819731,165.88 C768.924419,162.735984 773.334708,160.683671 778.050731,159.723 C782.766755,158.762329 787.91937,158.282 793.508731,158.282 C806.958132,158.282 817.52536,162.299293 825.210731,170.334 C832.896103,178.368707 836.738731,191.206578 836.738731,208.848 L836.738731,269.632 C836.738731,277.666707 838.179717,282.775656 841.061731,284.959 C843.943746,287.142344 848.354035,288.234 854.292731,288.234 L855.078731,288.234 L855.078731,302.12 L796.914731,302.12 L796.914731,215.922 C796.914731,204.56861 795.342747,195.835364 792.198731,189.722 C789.054716,183.608636 783.640103,180.552 775.954731,180.552 C770.190703,180.552 765.649415,182.429648 762.330731,186.185 C759.012048,189.940352 756.654072,194.918302 755.256731,201.119 C753.859391,207.319698 753.160731,214.000631 753.160731,221.162 L753.160731,271.204 C753.160731,278.540037 754.863714,283.212323 758.269731,285.221 C761.675748,287.229677 766.260703,288.234 772.024731,288.234 L772.810731,288.234 L772.810731,302.12 L692.376731,302.12 Z M917.507278,304.74 C905.804552,304.74 896.459979,301.683364 889.473278,295.57 C882.486576,289.456636 878.993278,278.714744 878.993278,263.344 L878.993278,179.504 L859.343278,179.504 L859.343278,166.142 C864.932639,166.142 869.954255,165.050344 874.408278,162.867 C878.8623,160.683656 882.399264,158.107348 885.019278,155.138 C890.433971,149.373971 894.451264,140.728058 897.071278,129.2 L918.817278,129.2 L918.817278,161.688 L952.353278,161.688 L952.353278,179.504 L918.817278,179.504 L918.817278,260.724 C918.817278,268.584039 920.170931,274.347982 922.878278,278.016 C925.585624,281.684018 929.995914,283.518 936.109278,283.518 C939.602628,283.518 942.877596,283.299669 945.934278,282.863 C948.99096,282.426331 951.916597,281.85867 954.711278,281.16 L954.711278,298.19 C951.916597,299.412673 947.331643,300.809992 940.956278,302.382 C934.580912,303.954008 926.764657,304.74 917.507278,304.74 Z M1058.91582,304.74 C1048.78511,304.74 1040.53219,302.600355 1034.15682,298.321 C1027.78146,294.041645 1022.67251,288.496034 1018.82982,281.684 L1016.47182,281.684 L1009.13582,302.12 L959.355824,302.12 L959.355824,288.234 L961.189824,288.234 C964.508507,288.234 967.696142,287.797338 970.752824,286.924 C973.809506,286.050662 976.298481,284.347679 978.219824,281.815 C980.141167,279.282321 981.101824,275.308694 981.101824,269.894 L981.101824,134.44 C981.101824,126.929296 979.049511,122.12601 974.944824,120.03 C970.840137,117.93399 965.993185,116.886 960.403824,116.886 L959.355824,116.886 L959.355824,103 L1020.92582,103 L1020.92582,147.802 C1020.92582,150.422013 1020.83849,153.740647 1020.66382,157.758 C1020.48916,161.775353 1020.22716,165.74898 1019.87782,169.679 C1019.52849,173.60902 1019.17916,176.883987 1018.82982,179.504 L1020.66382,179.504 C1024.50651,173.041301 1029.52813,167.932352 1035.72882,164.177 C1041.92952,160.421648 1050.00777,158.544 1059.96382,158.544 C1076.90658,158.544 1089.91911,164.351609 1099.00182,175.967 C1108.08454,187.582391 1112.62582,206.053207 1112.62582,231.38 C1112.62582,256.881461 1108.04087,275.483275 1098.87082,287.186 C1089.70078,298.888725 1076.38258,304.74 1058.91582,304.74 Z M1047.91182,285.09 C1056.47053,285.09 1062.67114,280.46138 1066.51382,271.204 C1070.35651,261.94662 1072.27782,248.584754 1072.27782,231.118 C1072.27782,213.301911 1070.35651,199.983711 1066.51382,191.163 C1062.67114,182.342289 1056.3832,177.932 1047.64982,177.932 C1037.34444,177.932 1030.31418,182.298623 1026.55882,191.032 C1022.80347,199.765377 1020.92582,213.214576 1020.92582,231.38 C1020.92582,248.672086 1022.80347,261.94662 1026.55882,271.204 C1030.31418,280.46138 1037.43177,285.09 1047.91182,285.09 Z M1196.80037,304.74 C1175.84027,304.74 1159.33443,298.670394 1147.28237,286.531 C1135.23031,274.391606 1129.20437,256.008123 1129.20437,231.38 C1129.20437,206.751877 1134.96831,188.41206 1146.49637,176.36 C1158.02443,164.30794 1175.05426,158.282 1197.58637,158.282 C1218.54647,158.282 1235.05231,164.30794 1247.10437,176.36 C1259.15643,188.41206 1265.18237,206.751877 1265.18237,231.38 C1265.18237,256.008123 1259.37476,274.391606 1247.75937,286.531 C1236.14398,298.670394 1219.15782,304.74 1196.80037,304.74 Z M1197.32437,288.234 C1207.45509,288.234 1214.52902,283.387048 1218.54637,273.693 C1222.56372,263.998952 1224.57237,249.894759 1224.57237,231.38 C1224.57237,212.690573 1222.52006,198.630047 1218.41537,189.198 C1214.31068,179.765953 1207.19309,175.05 1197.06237,175.05 C1186.93165,175.05 1179.85772,179.765953 1175.84037,189.198 C1171.82302,198.630047 1169.81437,212.690573 1169.81437,231.38 C1169.81437,249.894759 1171.86668,263.998952 1175.97137,273.693 C1180.07606,283.387048 1187.19365,288.234 1197.32437,288.234 Z M1322.37092,304.74 C1310.84286,304.74 1301.10529,301.246702 1293.15792,294.26 C1285.21054,287.273298 1281.23692,276.531406 1281.23692,262.034 C1281.23692,247.885929 1286.08387,237.406034 1295.77792,230.594 C1305.47196,223.781966 1320.18748,220.02667 1339.92492,219.328 L1361.40892,218.542 L1361.40892,204.132 C1361.40892,195.398623 1360.49193,188.237361 1358.65792,182.648 C1356.82391,177.058639 1352.32629,174.264 1345.16492,174.264 C1338.52755,174.264 1333.9426,176.971306 1331.40992,182.386 C1328.87724,187.800694 1327.61092,194.525293 1327.61092,202.56 C1315.90819,202.56 1307.08761,201.250013 1301.14892,198.63 C1295.21022,196.009987 1292.24092,191.468699 1292.24092,185.006 C1292.24092,178.543301 1294.68623,173.390686 1299.57692,169.548 C1304.46761,165.705314 1310.97388,162.867009 1319.09592,161.033 C1327.21796,159.198991 1336.25687,158.282 1346.21292,158.282 C1364.55301,158.282 1378.30787,161.600633 1387.47792,168.238 C1396.64796,174.875367 1401.23292,186.403251 1401.23292,202.822 L1401.23292,269.632 C1401.23292,276.793369 1402.36824,281.683987 1404.63892,284.304 C1406.90959,286.924013 1411.01422,288.234 1416.95292,288.234 L1418.00092,288.234 L1418.00092,302.12 L1369.26892,302.12 L1363.76692,284.042 L1361.40892,284.042 C1357.56623,288.758024 1353.94193,292.644318 1350.53592,295.701 C1347.1299,298.757682 1343.2436,301.028326 1338.87692,302.513 C1334.51023,303.997674 1329.00828,304.74 1322.37092,304.74 Z M1336.78092,285.614 C1344.29162,285.614 1350.27389,282.60103 1354.72792,276.575 C1359.18194,270.54897 1361.40892,262.383385 1361.40892,252.078 L1361.40892,232.428 L1349.61892,233.214 C1339.13886,233.738003 1331.89027,236.488975 1327.87292,241.467 C1323.85556,246.445025 1321.84692,253.649953 1321.84692,263.082 C1321.84692,278.103408 1326.82487,285.614 1336.78092,285.614 Z M1426.57546,302.12 L1426.57546,288.234 L1427.36146,288.234 C1433.30016,288.234 1438.14711,287.142344 1441.90246,284.959 C1445.65781,282.775656 1447.53546,277.579374 1447.53546,269.37 L1447.53546,193.39 C1447.53546,185.704628 1445.83248,180.81401 1442.42646,178.718 C1439.02045,176.62199 1434.43549,175.574 1428.67146,175.574 L1427.88546,175.574 L1427.88546,161.688 L1480.80946,161.688 L1486.04946,182.124 L1487.35946,182.124 C1490.85281,174.263961 1495.21944,168.36902 1500.45946,164.439 C1505.69949,160.50898 1513.64674,158.544 1524.30146,158.544 C1544.38823,158.544 1554.43146,165.617929 1554.43146,179.766 C1554.43146,187.800707 1551.50583,194.044978 1545.65446,198.499 C1539.8031,202.953022 1531.63752,205.18 1521.15746,205.18 C1521.15746,198.018631 1520.24047,192.604018 1518.40646,188.936 C1516.57245,185.267982 1513.21015,183.434 1508.31946,183.434 C1503.77811,183.434 1500.11014,185.005984 1497.31546,188.15 C1494.52078,191.294016 1492.4248,195.18031 1491.02746,199.809 C1489.63012,204.43769 1488.66947,209.109976 1488.14546,213.826 C1487.62146,218.542024 1487.35946,222.384652 1487.35946,225.354 L1487.35946,270.68 C1487.35946,278.365372 1489.10611,283.212323 1492.59946,285.221 C1496.09281,287.229677 1500.45944,288.234 1505.69946,288.234 L1514.08346,288.234 L1514.08346,302.12 L1426.57546,302.12 Z M1615.81201,304.74 C1598.69459,304.74 1585.50739,298.932391 1576.25001,287.317 C1566.99263,275.701609 1562.36401,257.318126 1562.36401,232.166 C1562.36401,206.839207 1566.94896,188.237393 1576.11901,176.36 C1585.28905,164.482607 1598.34526,158.544 1615.28801,158.544 C1625.06939,158.544 1633.10398,160.552647 1639.39201,164.57 C1645.68004,168.587353 1650.65799,173.565304 1654.32601,179.504 L1656.16001,179.504 C1655.46134,174.613309 1654.93734,169.111364 1654.58801,162.998 C1654.23867,156.884636 1654.06401,151.732021 1654.06401,147.54 L1654.06401,133.13 C1654.06401,125.968631 1651.96803,121.471009 1647.77601,119.637 C1643.58399,117.802991 1638.60604,116.886 1632.84201,116.886 L1630.74601,116.886 L1630.74601,103 L1693.88801,103 L1693.88801,269.894 C1693.88801,275.308694 1694.89233,279.282321 1696.90101,281.815 C1698.90969,284.347679 1701.57333,286.050662 1704.89201,286.924 C1708.21069,287.797338 1711.79132,288.234 1715.63401,288.234 L1716.68201,288.234 L1716.68201,302.12 L1665.85401,302.12 L1658.51801,281.684 L1656.16001,281.684 C1652.31732,288.670702 1647.16471,294.259979 1640.70201,298.452 C1634.23931,302.644021 1625.94273,304.74 1615.81201,304.74 Z M1627.07801,285.09 C1637.38339,285.09 1644.45732,280.679711 1648.30001,271.859 C1652.14269,263.038289 1654.06401,249.632757 1654.06401,231.642 C1654.06401,214.349914 1652.14269,201.07538 1648.30001,191.818 C1644.45732,182.56062 1637.38339,177.932 1627.07801,177.932 C1618.34463,177.932 1612.10036,182.56062 1608.34501,191.818 C1604.58966,201.07538 1602.71201,214.437246 1602.71201,231.904 C1602.71201,249.720089 1604.58966,263.038289 1608.34501,271.859 C1612.10036,280.679711 1618.34463,285.09 1627.07801,285.09 Z" id="Instantboard" fill="#9E9E9E"></path>
    </g>
</svg>