<?xml version="1.0" encoding="UTF-8"?>
<svg width="100px" height="100px" viewBox="0 0 100 100" version="1.1" xmlns="http://www.w3.org/2000/svg" xmlns:xlink="http://www.w3.org/1999/xlink">
    <!-- Generator: Sketch 46.2 (44496) - http://www.bohemiancoding.com/sketch -->
    <title>icon-add</title>
    <desc>Created with Sketch.</desc>
    <defs>
        <path d="M54,46 L54,34 C54,31.790861 52.209139,30 50,30 C47.790861,30 46,31.790861 46,34 L46,46 L34,46 C31.790861,46 30,47.790861 30,50 C30,52.209139 31.790861,54 34,54 L46,54 L46,66 C46,68.209139 47.790861,70 50,70 C52.209139,70 54,68.209139 54,66 L54,54 L66,54 C68.209139,54 70,52.209139 70,50 C70,47.790861 68.209139,46 66,46 L54,46 Z M30,18 L70,18 C76.627417,18 82,23.372583 82,30 L82,70 C82,76.627417 76.627417,82 70,82 L30,82 C23.372583,82 18,76.627417 18,70 L18,30 L18,30 C18,23.372583 23.372583,18 30,18 L30,18 Z" id="path-1"></path>
    </defs>
    <g id="Production" stroke="none" stroke-width="1" fill="none" fill-rule="evenodd">
        <g id="add-icon">
            <rect id="Shape" x="0" y="0" width="100" height="100"></rect>
            <g id="Shape">
                <use fill="#FFFFFF" fill-rule="evenodd" xlink:href="#path-1"></use>
                <path stroke="#D8D8D8" stroke-width="2" d="M55,45 L66,45 C68.7614237,45 71,47.2385763 71,50 C71,52.7614237 68.7614237,55 66,55 L55,55 L55,66 C55,68.7614237 52.7614237,71 50,71 C47.2385763,71 45,68.7614237 45,66 L45,55 L34,55 C31.2385763,55 29,52.7614237 29,50 C29,47.2385763 31.2385763,45 34,45 L45,45 L45,34 C45,31.2385763 47.2385763,29 50,29 C52.7614237,29 55,31.2385763 55,34 L55,45 Z M30,19 C23.9248678,19 19,23.9248678 19,30 L19,70 C19,76.0751322 23.9248678,81 30,81 L70,81 C76.0751322,81 81,76.0751322 81,70 L81,30 C81,23.9248678 76.0751322,19 70,19 L30,19 Z"></path>
            </g>
        </g>
    </g>
</svg>