<?xml version="1.0" encoding="UTF-8"?>
<svg width="400px" height="400px" viewBox="0 0 400 400" version="1.1" xmlns="http://www.w3.org/2000/svg" xmlns:xlink="http://www.w3.org/1999/xlink">
    <!-- Generator: Sketch 43.2 (39069) - http://www.bohemiancoding.com/sketch -->
    <title>logo</title>
    <desc>Created with Sketch.</desc>
    <defs>
        <path d="M0,107.771804 C0,92.8577336 10.4925961,74.7649934 23.4410862,67.3575532 L127.90993,7.59408215 C140.856085,0.187978139 161.843613,0.186641967 174.792103,7.59408215 L279.260947,67.3575532 C292.207101,74.7636572 302.702033,92.8608964 302.702033,107.771804 L302.702033,229.204854 C302.702033,244.118924 292.395738,262.53479 279.696212,270.32929 L175.977986,333.987706 C163.272222,341.786035 142.608005,341.881516 129.822078,334.200318 L23.150087,270.116678 C10.364647,262.435772 0,244.115761 0,229.204854 L0,107.771804 Z" id="path-1"></path>
    </defs>
    <g id="[PRODUCTION]" stroke="none" stroke-width="1" fill="none" fill-rule="evenodd">
        <g id="logo">
            <g transform="translate(60.000000, 29.000000)">
                <mask id="mask-2" fill="white">
                    <use xlink:href="#path-1"></use>
                </mask>
                <g id="Rectangle">
                    <use fill="#FBFAF5" fill-rule="evenodd" xlink:href="#path-1"></use>
                    <path stroke="#727171" stroke-width="27" d="M13.5,107.771804 C13.5,97.6990167 21.4000381,84.0781119 30.1446255,79.0755975 L134.61347,19.3121264 C143.407282,14.2814517 159.294204,14.2811389 168.088563,19.3121264 L272.557408,79.0755975 C281.299502,84.0766858 289.202033,97.7019985 289.202033,107.771804 L289.202033,229.204854 C289.202033,239.423028 281.335551,253.483159 272.634434,258.823583 L168.916208,322.481999 C160.503957,327.645128 145.242674,327.715495 136.774187,322.628016 L30.1021957,258.544375 C21.3803301,253.304678 13.5,239.377478 13.5,229.204854 L13.5,107.771804 Z"></path>
                </g>
                <path d="M-2.22044605e-16,168.488329 L79.9758175,207.943853 C80.966356,208.432528 82.5475309,208.377612 83.4995498,207.825784 L302.702033,80.7674908" id="Line" stroke="#727171" stroke-width="27" stroke-linecap="square" mask="url(#mask-2)"></path>
            </g>
        </g>
    </g>
</svg>
