<?xml version="1.0" encoding="UTF-8"?>
<svg width="100px" height="100px" viewBox="0 0 100 100" version="1.1" xmlns="http://www.w3.org/2000/svg" xmlns:xlink="http://www.w3.org/1999/xlink">
    <!-- Generator: Sketch 46.2 (44496) - http://www.bohemiancoding.com/sketch -->
    <title>icon-back</title>
    <desc>Created with Sketch.</desc>
    <defs></defs>
    <g id="Production" stroke="none" stroke-width="1" fill="none" fill-rule="evenodd">
        <g id="back-icon">
            <rect id="Shape" x="0" y="0" width="100" height="100"></rect>
            <path d="M45.5033586,77.5968469 L49.500187,73.5978114 L49.4997965,73.5974211 C50.2804771,72.8163094 50.2803024,71.5502805 49.4994062,70.7693844 L33.6377065,54.9069039 L81.8320649,54.9069039 L81.8320649,54.9069039 C82.9366344,54.9069039 83.8320649,54.0114734 83.8320649,52.9069039 L83.8320649,47.2723513 L83.8320649,47.2723513 C83.8320649,46.1677818 82.9366344,45.2723513 81.8320649,45.2723513 L33.6377065,45.2723513 L49.4997966,29.4102612 L49.4997966,29.4102612 C50.2808452,28.6292126 50.2808452,27.3628827 49.4997966,26.5818341 L45.503749,22.5857864 L45.503749,22.5857864 C44.7227004,21.8047379 43.4563705,21.8047379 42.6753219,22.5857864 L16.5856943,48.675414 L16.5857864,48.6755062 C15.8047738,49.4565188 15.8047326,50.7227777 16.5856943,51.5038411 L42.675414,77.5971451 L42.6749316,77.5976275 C43.4559293,78.378727 44.7222592,78.3788095 45.5033587,77.5978118 C45.5035195,77.597651 45.5036803,77.5974901 45.5038411,77.5973292 Z" id="Shape" stroke="#D8D8D8" stroke-width="2" fill="#FFFFFF" stroke-linecap="square"></path>
        </g>
    </g>
</svg>