<?xml version="1.0" encoding="UTF-8"?>
<svg width="100px" height="100px" viewBox="0 0 100 100" version="1.1" xmlns="http://www.w3.org/2000/svg" xmlns:xlink="http://www.w3.org/1999/xlink">
    <!-- Generator: Sketch 46.2 (44496) - http://www.bohemiancoding.com/sketch -->
    <title>icon-edit</title>
    <desc>Created with Sketch.</desc>
    <defs>
        <path d="M20.8026163,40 L70.5250317,40 L70.5250317,60.088784 L20.8026163,60.088784 L20.8026163,60.088784 C19.7134378,60.088784 18.6713578,59.6446308 17.917067,58.8589113 L12.1144507,52.8145193 C10.6285164,51.2666711 10.6285164,48.8221129 12.1144507,47.2742647 L17.917067,41.2298727 L17.917067,41.2298727 C18.6713578,40.4441531 19.7134378,40 20.8026163,40 L20.8026163,40 Z M75.3463399,40 L85.8102643,40 L85.8102643,40 C88.0194033,40 89.8102643,41.790861 89.8102643,44 L89.8102643,56.088784 L89.8102643,56.088784 C89.8102643,58.297923 88.0194033,60.088784 85.8102643,60.088784 L75.3463399,60.088784 L75.3463399,40 Z" id="path-1"></path>
    </defs>
    <g id="Production" stroke="none" stroke-width="1" fill="none" fill-rule="evenodd">
        <g id="edit-icon">
            <rect id="Shape" x="0" y="0" width="100" height="100"></rect>
            <g id="Shape" transform="translate(50.405132, 50.044392) rotate(-45.000000) translate(-50.405132, -50.044392) ">
                <use fill="#FFFFFF" fill-rule="evenodd" xlink:href="#path-1"></use>
                <path stroke="#D8D8D8" stroke-width="2" d="M69.5250317,59.088784 L69.5250317,41 L20.8026163,41 C19.9857324,41 19.2041724,41.3331148 18.6384543,41.9224045 L12.835838,47.9667965 C11.7213873,49.1276827 11.7213873,50.9611013 12.835838,52.1219875 L18.6384543,58.1663794 C19.2041724,58.7556691 19.9857324,59.088784 20.8026163,59.088784 L69.5250317,59.088784 Z M76.3463399,41 L76.3463399,59.088784 L85.8102643,59.088784 C87.4671186,59.088784 88.8102643,57.7456382 88.8102643,56.088784 L88.8102643,44 C88.8102643,42.3431458 87.4671186,41 85.8102643,41 L76.3463399,41 Z"></path>
            </g>
        </g>
    </g>
</svg>