<?xml version="1.0" encoding="UTF-8"?>
<svg width="100px" height="100px" viewBox="0 0 100 100" version="1.1" xmlns="http://www.w3.org/2000/svg" xmlns:xlink="http://www.w3.org/1999/xlink">
    <!-- Generator: Sketch 46.2 (44496) - http://www.bohemiancoding.com/sketch -->
    <title>icon-label</title>
    <desc>Created with Sketch.</desc>
    <defs>
        <path d="M31.6035661,28.7695032 L47.6035661,16.7973285 L47.6035661,16.7973285 C49.0243335,15.7342238 50.9756665,15.7342238 52.3964339,16.7973285 L68.3964339,28.7695032 C69.4057537,29.5247377 70,30.7115773 70,31.9721746 L70,79.8441749 C70,82.0533139 68.209139,83.8441749 66,83.8441749 L34,83.8441749 C31.790861,83.8441749 30,82.0533139 30,79.8441749 L30,31.9721746 C30,30.7115773 30.5942463,29.5247377 31.6035661,28.7695032 L31.6035661,28.7695032 Z M50,35.672602 C52.209139,35.672602 54,33.881741 54,31.672602 C54,29.463463 52.209139,27.672602 50,27.672602 C47.790861,27.672602 46,29.463463 46,31.672602 C46,33.881741 47.790861,35.672602 50,35.672602 Z" id="path-1"></path>
    </defs>
    <g id="Production" stroke="none" stroke-width="1" fill="none" fill-rule="evenodd">
        <g id="label-icon">
            <rect id="Shape" x="0" y="0" width="100" height="100"></rect>
            <g id="Shape" transform="translate(50.000000, 49.922087) rotate(-315.000000) translate(-50.000000, -49.922087) ">
                <use fill="#FFFFFF" fill-rule="evenodd" xlink:href="#path-1"></use>
                <path stroke="#D8D8D8" stroke-width="2" d="M32.2026746,29.570171 C31.4456847,30.1365969 31,31.0267266 31,31.9721746 L31,79.8441749 C31,81.5010291 32.3431458,82.8441749 34,82.8441749 L66,82.8441749 C67.6568542,82.8441749 69,81.5010291 69,79.8441749 L69,31.9721746 C69,31.0267266 68.5543153,30.1365969 67.7973254,29.570171 L51.7973254,17.5979964 C50.7317499,16.8006679 49.2682501,16.8006679 48.2026746,17.5979964 L32.2026746,29.570171 Z M50,36.672602 C47.2385763,36.672602 45,34.4340258 45,31.672602 C45,28.9111783 47.2385763,26.672602 50,26.672602 C52.7614237,26.672602 55,28.9111783 55,31.672602 C55,34.4340258 52.7614237,36.672602 50,36.672602 Z"></path>
            </g>
        </g>
    </g>
</svg>