<?xml version="1.0" encoding="UTF-8"?>
<svg width="100px" height="100px" viewBox="0 0 100 100" version="1.1" xmlns="http://www.w3.org/2000/svg" xmlns:xlink="http://www.w3.org/1999/xlink">
    <!-- Generator: Sketch 46.2 (44496) - http://www.bohemiancoding.com/sketch -->
    <title>icon-send</title>
    <desc>Created with Sketch.</desc>
    <defs></defs>
    <g id="Production" stroke="none" stroke-width="1" fill="none" fill-rule="evenodd">
        <g id="send-icon">
            <rect id="Shape" x="0" y="0" width="100" height="100"></rect>
            <path d="M20.2661107,21.3836035 L84.9814101,42.3723492 L84.9814101,42.3723492 C86.0321018,42.7131141 86.6076112,43.8411125 86.2668463,44.8918042 C86.090184,45.4365129 85.6885087,45.879368 85.1635715,46.1081868 L16.2157379,76.1623706 L16.2157379,76.1623706 C15.2031835,76.6037405 14.024545,76.140704 13.5831752,75.1281496 C13.3809092,74.6641276 13.3621163,74.1406704 13.5305864,73.6633385 L23.5290495,45.3343598 L23.5290495,45.3343598 C23.8112695,44.5347365 24.5670646,44 25.4150302,44 L48,44 L48,44 C48.8252161,44 49.494186,43.3310302 49.494186,42.505814 C49.494186,41.7522613 48.9330647,41.1166331 48.185331,41.0231664 L25.1208079,38.140101 L25.1208079,38.140101 C24.4252349,38.0531544 23.8259517,37.6083914 23.5412543,36.9678222 L17.8214782,24.0983261 L17.8214782,24.0983261 C17.3728701,23.0889577 17.827456,21.9070342 18.8368244,21.458426 C19.2877124,21.2580314 19.7967635,21.2313827 20.2661107,21.3836035 Z" id="Shape" stroke="#D8D8D8" stroke-width="2" fill="#FFFFFF"></path>
        </g>
    </g>
</svg>