<?xml version="1.0" encoding="UTF-8"?>
<svg width="100px" height="100px" viewBox="0 0 100 100" version="1.1" xmlns="http://www.w3.org/2000/svg" xmlns:xlink="http://www.w3.org/1999/xlink">
    <!-- Generator: Sketch 46.2 (44496) - http://www.bohemiancoding.com/sketch -->
    <title>icon-list</title>
    <desc>Created with Sketch.</desc>
    <defs></defs>
    <g id="Production" stroke="none" stroke-width="1" fill="none" fill-rule="evenodd">
        <g id="list-icon">
            <rect id="Shape" x="0" y="0" width="100" height="100"></rect>
            <path d="M16,36 C12.6862915,36 10,33.3137085 10,30 C10,26.6862915 12.6862915,24 16,24 C19.3137085,24 22,26.6862915 22,30 C22,33.3137085 19.3137085,36 16,36 Z M16,76 C12.6862915,76 10,73.3137085 10,70 C10,66.6862915 12.6862915,64 16,64 C19.3137085,64 22,66.6862915 22,70 C22,73.3137085 19.3137085,76 16,76 Z M16,56 C12.6862915,56 10,53.3137085 10,50 C10,46.6862915 12.6862915,44 16,44 C19.3137085,44 22,46.6862915 22,50 C22,53.3137085 19.3137085,56 16,56 Z M34,46 L86,46 C88.209139,46 90,47.790861 90,50 C90,52.209139 88.209139,54 86,54 L34,54 C31.790861,54 30,52.209139 30,50 C30,47.790861 31.790861,46 34,46 Z M34,26 L86,26 C88.209139,26 90,27.790861 90,30 L90,30 C90,32.209139 88.209139,34 86,34 L34,34 C31.790861,34 30,32.209139 30,30 L30,30 L30,30 C30,27.790861 31.790861,26 34,26 Z M34,66 L86,66 C88.209139,66 90,67.790861 90,70 C90,72.209139 88.209139,74 86,74 L34,74 C31.790861,74 30,72.209139 30,70 C30,67.790861 31.790861,66 34,66 Z" id="Shape" stroke="#D8D8D8" stroke-width="2" fill="#FFFFFF"></path>
        </g>
    </g>
</svg>